<?xml version="1.0" encoding="UTF-8"?>
<svg id="Layer_1" data-name="Layer 1" xmlns="http://www.w3.org/2000/svg" viewBox="0 0 1063.58 1124.9">
  <path d="M848,439.1c-22.01-41.97-51.27-78.84-87.02-109.54-17.29-14.86-22.62-39.91-12.99-60.89l18.41-39.96c7.62-16.54,8.04-34.96,1.12-51.87-6.82-16.87-20.05-29.77-37.15-36.36-8.83-3.36-18.13-4.67-27.62-3.88-24.16,2.1-45.61,17.48-56.03,40.05l-17.24,37.53c-7.85,17.01-24.16,28.55-42.57,30.14-4.07.37-8.13.23-12.1-.37-29.4-4.53-59.3-5.56-88.79-2.99-57.25,4.95-111.41,22.76-161.09,52.95-162.4,98.75-224.23,309.75-140.81,480.42,68.28,139.59,212.17,221.14,366.72,207.73,58.09-5.05,113.09-23.32,163.33-54.3,165.16-101.93,223.95-316.52,133.84-488.64ZM347.77,718.84c6.17,71.55,76.92,152.4,234.27,148.28,4.49-.37,8.46,2.94,8.88,7.52.33,3.88-2.15,7.38-5.66,8.55-.19.05-.42.14-.61.14-13.27,3.13-318.21,44.07-343.49-247.83-9.25-106.69,42.71-204.6,126.74-258.95.19-.09.37-.23.56-.33.65-.47,1.36-.89,2.15-1.4,19.81-12.24,41.83-20.56,64.68-25.14,5.84-1.21,10.05-1.96,10.51-1.96,86.13-7.48,161.98,56.27,169.45,142.4,7.48,86.08-56.31,161.93-142.44,169.41-17.15,1.49-33.88.14-49.77-3.65-.93-.23-1.92-.42-2.8-.7-5.8-1.26-11.82-1.68-18.04-1.17-32.9,2.9-57.34,31.87-54.44,64.82Z"/>
</svg>