<?xml version="1.0" encoding="UTF-8"?>
<svg id="Layer_1" data-name="Layer 1" xmlns="http://www.w3.org/2000/svg" viewBox="0 0 1063.58 1124.9">
  <defs>
    <style>
      .cls-1 {
        fill: #fff;
      }
    </style>
  </defs>
  <path class="cls-1" d="M551.91,980.96c-154.51,13.39-298.44-68.16-366.69-207.74-83.44-170.65-21.58-381.68,140.82-480.41,49.64-30.18,103.83-47.99,161.06-52.95,29.52-2.56,59.39-1.56,88.79,2.98,4,.62,8.07.75,12.1.4,18.44-1.6,34.76-13.15,42.58-30.15l17.26-37.52c10.41-22.61,31.88-37.96,56.04-40.05,9.47-.82,18.76.48,27.6,3.88,17.11,6.57,30.31,19.48,37.18,36.36,6.88,16.89,6.46,35.31-1.15,51.86l-18.39,39.96c-9.66,20.99-4.31,46.03,13,60.9,35.73,30.69,64.99,67.54,86.98,109.52,90.11,172.1,31.34,386.73-133.81,488.62-50.27,31.01-105.23,49.29-163.36,54.33,0,0,0,0,0,0ZM490.91,281.67c-52.08,4.51-101.25,20.98-146.13,48.93-68.92,42.93-119.34,110.06-141.97,189.04-22.63,78.98-15.41,162.63,20.32,235.53,60.58,123.59,188.19,195.79,325.09,183.92,52.05-4.51,101.19-20.96,146.06-48.89,68.93-42.91,119.36-110.03,142.01-189,22.65-78.97,15.45-162.62-20.26-235.54-60.56-123.64-188.17-195.86-325.12-184Z"/>
  <path class="cls-1" d="M348.86,717.76c6.2,71.52,76.94,152.36,234.29,148.27,4.5-.39,8.48,2.96,8.87,7.5.34,3.91-2.11,7.42-5.66,8.56-.19.07-.38.13-.58.15-13.27,3.12-318.23,44.05-343.52-247.83-9.25-106.69,42.71-204.61,126.74-258.95.19-.11.37-.23.56-.34.67-.43,1.39-.89,2.16-1.36,19.83-12.25,41.84-20.56,64.69-25.18,5.86-1.19,10.05-1.92,10.52-1.96,86.13-7.46,161.99,56.3,169.45,142.42,7.46,86.08-56.3,161.94-142.43,169.4-17.15,1.49-33.9.13-49.78-3.66-.95-.21-1.91-.42-2.82-.69-5.77-1.27-11.81-1.68-18.02-1.14-32.93,2.85-57.34,31.84-54.48,64.82Z"/>
</svg>