<?xml version="1.0" encoding="UTF-8"?>
<svg id="Layer_1" data-name="Layer 1" xmlns="http://www.w3.org/2000/svg" viewBox="0 0 1516.08 1124.9">
  <defs>
    <style>
      .cls-1 {
        fill: #fff;
      }
    </style>
  </defs>
  <g>
    <path class="cls-1" d="M308.58,919.21c4.05,0,7.51.67,10.38,2.02,2.87,1.35,5.07,3.3,6.6,5.85,1.52,2.55,2.29,5.62,2.29,9.22,0,2.15-.33,4.29-.97,6.41-.65,2.13-1.69,4.04-3.11,5.74-1.42,1.7-3.31,3.07-5.66,4.12-2.35,1.05-5.2,1.57-8.55,1.57h-7.95v19.42h-7.95v-54.36h14.92ZM309.55,946.35c2,0,3.67-.32,5.02-.97,1.35-.65,2.41-1.49,3.19-2.51.77-1.02,1.32-2.11,1.65-3.26.32-1.15.49-2.17.49-3.07,0-1-.16-2.06-.49-3.19-.33-1.12-.86-2.17-1.61-3.15-.75-.97-1.78-1.77-3.07-2.4-1.3-.62-2.92-.94-4.87-.94h-8.25v19.5h7.95Z"/>
    <path class="cls-1" d="M411.98,946.43c0-3.75.71-7.3,2.14-10.65,1.42-3.35,3.4-6.32,5.92-8.92,2.52-2.6,5.46-4.62,8.81-6.07,3.35-1.45,6.95-2.17,10.8-2.17s7.45.73,10.8,2.17c3.35,1.45,6.31,3.47,8.89,6.07,2.57,2.6,4.58,5.57,6.04,8.92,1.45,3.35,2.17,6.9,2.17,10.65s-.72,7.45-2.17,10.8c-1.45,3.35-3.48,6.3-6.07,8.85-2.6,2.55-5.56,4.54-8.88,5.96-3.33,1.42-6.91,2.14-10.76,2.14s-7.45-.7-10.8-2.1c-3.35-1.4-6.29-3.36-8.81-5.89-2.52-2.52-4.5-5.46-5.92-8.81-1.42-3.35-2.14-7-2.14-10.95ZM420.23,946.43c0,2.8.5,5.41,1.5,7.84,1,2.43,2.4,4.55,4.2,6.37,1.8,1.83,3.89,3.25,6.26,4.27,2.37,1.03,4.94,1.54,7.69,1.54s5.22-.51,7.57-1.54c2.35-1.02,4.41-2.45,6.19-4.27,1.77-1.82,3.16-3.95,4.16-6.37,1-2.42,1.5-5.04,1.5-7.84s-.51-5.41-1.54-7.84c-1.03-2.42-2.41-4.56-4.16-6.41-1.75-1.85-3.82-3.3-6.22-4.35-2.4-1.05-4.97-1.57-7.72-1.57s-5.31.52-7.69,1.57c-2.38,1.05-4.45,2.5-6.22,4.35-1.78,1.85-3.14,4-4.09,6.45-.95,2.45-1.42,5.05-1.42,7.8Z"/>
    <path class="cls-1" d="M570.86,919.21c2.85,0,5.49.37,7.91,1.12,2.42.75,4.51,1.85,6.26,3.3,1.75,1.45,3.1,3.24,4.05,5.36.95,2.13,1.42,4.56,1.42,7.31,0,2.15-.31,4.29-.94,6.41-.63,2.13-1.66,4.04-3.11,5.74-1.45,1.7-3.36,3.07-5.74,4.12-2.38,1.05-5.31,1.57-8.81,1.57h-7.95v19.42h-7.95v-54.36h14.85ZM571.84,946.35c2,0,3.69-.31,5.06-.94,1.37-.62,2.45-1.42,3.22-2.4.77-.97,1.32-2.02,1.65-3.15.32-1.12.49-2.19.49-3.19s-.16-2.06-.49-3.19c-.33-1.12-.88-2.2-1.65-3.22-.78-1.02-1.81-1.85-3.11-2.47-1.3-.62-2.9-.94-4.8-.94h-8.25v19.5h7.87ZM580.99,951.15l14.1,22.42h-9.3l-14.32-22.27,9.52-.15Z"/>
    <path class="cls-1" d="M678.39,919.21h36.22v7.65h-14.32v46.71h-8.02v-46.71h-13.87v-7.65Z"/>
    <path class="cls-1" d="M817.33,919.21c2.85,0,5.49.37,7.91,1.12,2.42.75,4.51,1.85,6.26,3.3,1.75,1.45,3.1,3.24,4.05,5.36.95,2.13,1.42,4.56,1.42,7.31,0,2.15-.31,4.29-.94,6.41-.63,2.13-1.66,4.04-3.11,5.74-1.45,1.7-3.36,3.07-5.74,4.12-2.38,1.05-5.31,1.57-8.81,1.57h-7.95v19.42h-7.95v-54.36h14.85ZM818.3,946.35c2,0,3.69-.31,5.06-.94,1.37-.62,2.45-1.42,3.22-2.4.77-.97,1.32-2.02,1.65-3.15.32-1.12.49-2.19.49-3.19s-.16-2.06-.49-3.19c-.33-1.12-.88-2.2-1.65-3.22-.78-1.02-1.81-1.85-3.11-2.47-1.3-.62-2.9-.94-4.8-.94h-8.25v19.5h7.87ZM827.45,951.15l14.1,22.42h-9.3l-14.32-22.27,9.52-.15Z"/>
    <path class="cls-1" d="M923.13,973.57l23.99-56.69h.53l23.84,56.69h-9.15l-17.4-44.09,5.7-3.82-19.57,47.91h-7.95ZM937.75,953.18h19.42l2.62,6.82h-24.44l2.4-6.82Z"/>
    <path class="cls-1" d="M1057.79,919.21h7.95v54.36h-7.95v-54.36Z"/>
    <path class="cls-1" d="M1153.62,919.21h36.22v7.65h-14.32v46.71h-8.02v-46.71h-13.87v-7.65Z"/>
    <path class="cls-1" d="M1305.98,929.56c-1.9-.95-3.95-1.79-6.15-2.51-2.2-.72-4.32-1.09-6.37-1.09-2.8,0-5.02.64-6.67,1.91s-2.47,3.01-2.47,5.21c0,1.55.55,2.9,1.65,4.05,1.1,1.15,2.52,2.16,4.27,3.04,1.75.88,3.6,1.66,5.55,2.36,1.65.6,3.29,1.31,4.91,2.14,1.62.82,3.1,1.84,4.42,3.04,1.32,1.2,2.37,2.69,3.15,4.46.77,1.77,1.16,3.96,1.16,6.56,0,2.85-.71,5.44-2.14,7.76-1.42,2.32-3.49,4.19-6.19,5.59-2.7,1.4-5.92,2.1-9.67,2.1-2.35,0-4.6-.26-6.75-.79-2.15-.52-4.19-1.21-6.11-2.06-1.92-.85-3.64-1.82-5.14-2.92l3.52-6.3c1.2.95,2.57,1.79,4.12,2.51,1.55.73,3.16,1.33,4.84,1.8,1.67.48,3.26.71,4.76.71,1.65,0,3.27-.29,4.87-.86,1.6-.57,2.94-1.47,4.01-2.7,1.07-1.22,1.61-2.84,1.61-4.84,0-1.7-.48-3.14-1.42-4.31-.95-1.17-2.17-2.19-3.67-3.04-1.5-.85-3.15-1.6-4.95-2.25-1.65-.6-3.36-1.3-5.14-2.1-1.78-.8-3.41-1.77-4.91-2.92-1.5-1.15-2.71-2.56-3.64-4.24-.93-1.67-1.39-3.74-1.39-6.19,0-2.9.69-5.45,2.06-7.65,1.37-2.2,3.29-3.92,5.74-5.17,2.45-1.25,5.25-1.9,8.4-1.95,3.7,0,6.9.44,9.6,1.31,2.7.88,5.1,1.96,7.2,3.26l-3.07,6.07Z"/>
  </g>
  <g>
    <path class="cls-1" d="M551.81,168.03c-8.64-6.12-19.86-9.21-33.9-9.21-33.54,0-61.32,14.83-83.35,44.48-13.32,18.13-30.45,52.11-51.46,101.91h-45.13c-8.71,1.01-13.1,4.03-13.1,9.07,0,2.73,2.09,4.03,6.33,4.03,3.46,0,6.62-.65,9.43-2.09h38.29l-79.24,226.07c-16.41,46.71-29.73,77.16-39.87,91.19-12.88,17.56-28.5,26.34-46.64,26.34-10.51,0-15.76-3.89-15.76-11.66,0-2.16,1.08-4.46,3.17-6.91,3.45-4.6,5.25-8.35,5.25-11.15,0-8.85-5.25-13.32-15.76-13.32-15.4,0-23.1,7.2-23.1,21.52,0,19.94,14.9,29.94,44.62,29.94,14.18,0,26.49-2.66,36.85-8.13.43-.14.79-.36,1.15-.58,4.03-2.16,8.13-4.89,12.38-8.2,0,0,.07,0,.07-.07,7.13-5.61,14.61-12.88,22.46-21.88,1.58-1.8,3.17-3.67,4.68-5.61,4.1-5.04,8.21-10.51,12.38-16.48,25.69-37.21,52.04-92.63,78.96-166.19l45.63-124.88h61.39c4.89,0,7.34-1.8,7.34-5.47s-1.94-5.54-5.76-5.54h-60.89l14.18-39.73c14.32-40.09,26.2-66.65,35.63-79.67,9.5-13.1,21.88-19.58,37.28-19.58s22.02,4.32,22.02,13.1c0,1.73-.72,4.03-2.09,6.84-4.53,5.18-6.84,9.21-6.84,12.02,0,3.89,1.66,7.27,4.97,10.22,3.38,3.02,7.27,4.46,11.8,4.46,12.96,0,19.43-6.84,19.43-20.44,0-10.15-4.25-18.28-12.81-24.4Z"/>
    <path class="cls-1" d="M643.29,158.31c-1.37,0-4.03.29-7.85.72-7.34.94-18.57,1.37-33.54,1.37h-28.86c-3.17,0-4.75.93-4.75,2.73,0,2.38,7.7,3.6,23.1,3.6,6.62,0,9.93,1.58,9.93,4.75,0,.36-.5,1.58-1.58,3.67l-117.46,287.25c-8.78,21.37-13.17,35.55-13.17,42.61,0,21.37,14.39,32.1,43.04,32.1,21.02,0,38.15-5.97,51.39-17.85,11.59-10.15,17.35-17.49,17.35-22.02,0-2.45-1.22-3.67-3.67-3.67-1.37,0-4.75,3.09-10,9.43-12.52,14.68-25.12,22.02-37.71,22.02s-18.93-4.75-18.93-14.18c0-6.26,4.39-20.08,13.17-41.46l117.46-286.96c2.45-5.54,4.25-9.71,5.25-12.52,1.73-4.25,2.59-6.69,2.59-7.34,0-2.81-1.87-4.25-5.76-4.25Z"/>
    <path class="cls-1" d="M852.38,318.24c2.81-6.26,4.25-9.86,4.25-10.94,0-2.45-1.08-3.67-3.17-3.67-1.08,0-2.3.43-3.67,1.22-4.18,1.66-10.15,2.45-17.85,2.45-1.37,0-3.89-.36-7.34-1.01-3.53-.72-5.61-1.08-6.26-1.08-2.16,0-4.61,2.81-7.34,8.42l-13.17,27.78c-3.1-25.19-17.78-37.79-44.05-37.79s-52.83,13.24-82.91,39.8c-22.02,19.5-39.66,41.17-52.97,64.92-13.24,23.68-19.94,45.49-19.94,65.43,0,18.13,5.76,33.04,17.35,44.7,11.52,11.73,26.41,17.56,44.55,17.56,23.25,0,44.19-10.22,62.83-30.81,4.82-5.18,9.36-11.01,13.82-17.49-2.52,7.06-3.74,13.17-3.74,18.43,0,8.35,3.45,15.19,10.29,20.44,3.67,2.88,7.99,4.89,12.88,6.19,4.1,1.15,8.64,1.66,13.6,1.66,21.31,0,39.66-8.21,55.06-24.61,7.7-8.42,11.52-14.54,11.52-18.43,0-1.37-.65-2.09-2.09-2.09s-3.46,1.94-6.26,5.83c-13.67,18.5-27.28,27.78-40.95,27.78-9.07,0-13.6-4.53-13.6-13.6,0-7.99,3.31-19.5,9.93-34.47l69.24-156.62ZM742.76,458.73c-1.66,3.45-3.38,6.77-5.18,10.01-7.77,14.04-16.91,26.06-27.64,35.91-13.1,12.16-25.26,18.28-36.42,18.28-19.58,0-29.37-11.88-29.37-35.48,0-19.51,5.54-42.18,16.77-68.16,11.16-25.91,26.05-50.53,44.55-73.84,16.12-20.51,32.89-30.81,50.38-30.81,10.15,0,18.43,3.31,24.9,9.93,6.48,6.62,9.72,15.33,9.72,26.13,0,3.81-2.23,10.58-6.84,20.3l-39.95,85.72-.94,2.01Z"/>
    <path class="cls-1" d="M1032.47,305.72c-.36,0-1.8.36-4.25,1.08-2.45.72-4.53,1.01-6.26,1.01h-32.53l11.52-24.83,5.76-12.38c0-1.44-.86-2.09-2.59-2.09-1.08,0-2.3.29-3.67.94-7.34,3.24-12.96,4.82-16.77,4.82-2.09,0-5.04-.29-8.71-.79-3.67-.51-6.33-.79-8.13-.79s-4.18,3.89-7.34,11.52l-8.85,22.6c-4.61.36-9.28.5-14.18.5-3.89,0-6.69.22-8.42.5h-4.68c-4.97,0-7.41,2.24-7.41,6.48,0,2.38,3.02,3.52,8.92,3.52h21.52l-68.74,147.04c-7.99,17.13-12.02,28.79-12.02,35.05,0,9.79,3.89,17.85,11.8,24.11,7.85,6.26,18.07,9.43,30.66,9.43,18.57,0,34.48-5.83,47.72-17.34,11.59-10.15,17.35-17.49,17.35-22.02,0-2.45-1.44-3.67-4.17-3.67-1.44,0-3.53,1.73-6.33,5.18-12.24,16.48-26.2,24.69-41.96,24.69-10.87,0-16.27-3.67-16.27-11.01,0-4.53,3.89-15.33,11.52-32.53l70.82-158.92h29.44c14.68-.36,22.02-2.95,22.02-7.84,0-2.81-1.94-4.25-5.76-4.25Z"/>
  </g>
  <g>
    <path class="cls-1" d="M556.56,602.54c-5.83,0-10.87,1.94-15.04,5.76-4.1,3.82-6.19,8.42-6.19,13.6,0,8.78,4.97,13.17,14.97,13.17,2.09,0,3.46-.14,4.1-.43,2.74-.79,4.46-1.15,5.18-1.15,4.46,0,6.69,3.82,6.69,11.52,0,34.26-11.01,69.82-33.04,106.52-29.73,49.3-57.22,73.92-82.34,73.92-15.04,0-22.6-8.56-22.6-25.7,0-12.23,3.89-27.93,11.52-47.22l49.37-123.22c2.09-5.25,3.96-9.65,5.76-13.17,1.37-1.37,2.09-2.81,2.09-4.18,0-2.01-1.37-3.1-4.03-3.17,0,.14-1.66.43-4.89,1.08l-14.68,2.59-12.6,1.58-6.26.5c-3.89.36-6.33,2.66-7.41,6.84l-9.93,29.8-26.77,64.34c-30.37,73.27-60.1,109.9-89.18,109.9-11.88,0-17.85-7.27-17.85-21.95,0-11.88,4.03-26.7,12.09-44.48l30.95-68.02c11.23-24.76,16.77-44.19,16.77-58.08,0-20.3-12.74-30.37-38.29-30.37-7.84,0-15.69,1.58-23.39,4.75-11.08,4.46-22.02,12.16-32.75,23.03-13.17,13.53-20.01,23.46-20.37,29.79.43-.14.79-.36,1.15-.58,4.03-2.16,8.13-4.89,12.38-8.2,0,0,.07,0,.07-.07,5.18-7.7,11.8-14.97,19.94-21.88,2.52-2.09,4.89-3.96,7.2-5.61,7.63-5.4,14.11-8.13,19.51-8.13,8.06,0,12.09,4.75,12.09,14.18,0,7.7-2.59,17.64-7.85,29.87l-31.52,72.41c-9.79,22.39-14.68,42.18-14.68,59.31,0,12.95,4.53,23.61,13.67,31.96,9.07,8.42,20.58,12.6,34.62,12.6,31.45,0,57.51-21.67,78.16-65.07,0,11.95.5,20.3,1.58,25.19,2.45,12.23,7.85,21.95,16.27,29.15,8.35,7.13,18.14,10.73,29.37,10.73,32.53,0,63.34-21.52,92.56-64.63,29.22-43.11,43.83-89.03,43.83-137.76,0-20.73-6.77-31.02-20.22-31.02Z"/>
    <path class="cls-1" d="M837.84,786.65c-1.8,0-5.25,2.3-10.44,6.91-20.51,17.78-36.42,26.7-47.93,26.7-5.18,0-7.77-2.66-7.77-7.92,0-2.8,2.95-11.08,8.92-24.68l47.72-109.9c8.06-18.64,12.09-33.18,12.09-43.69,0-9.43-4.1-17.27-12.38-23.39-8.21-6.12-18.79-9.21-31.74-9.21-16.05,0-31.45,4.82-46.14,14.47-14.68,9.57-33.04,26.84-55.06,51.68l60.82-134.81,24.11-53.55c2.16-3.53,4.39-8.21,6.84-14.18,1.44-1.73,2.09-3.81,2.09-6.26s-1.51-3.67-4.68-3.67c-1.44,0-4.25.21-8.42.58-6.98.65-14.32,1.01-22.02,1.01h-10.15l-.94,2.01c-1.66,3.45-3.38,6.77-5.18,10.01,0,1.8-2.59,8.56-7.84,20.44l-7.05,16.05-137.26,312.37c-2.37,5.62-3.67,9.14-3.67,10.51,0,1.01.72,1.58,2.16,1.58h36.2c3.09,0,5.18-.58,6.26-1.58,1.08-1.08,2.95-4.89,5.76-11.51l34.12-76.66c11.16-25.48,20.87-44.41,29.08-56.64,8.28-12.24,20.22-25.84,35.99-40.88,20.58-19.58,38.07-29.37,52.47-29.37,11.52,0,17.27,5.4,17.27,16.27,0,4.17-3.89,14.83-11.66,31.96l-46.5,103.35c-8.42,18.86-12.67,32.03-12.67,39.37,0,8.71,2.95,15.83,8.93,21.23,5.97,5.4,13.82,8.14,23.61,8.14,20.3,0,42.83-10.51,67.66-31.53,6.62-5.54,10-9.57,10-12.02,0-2.09-.86-3.17-2.59-3.17Z"/>
    <path class="cls-1" d="M994.18,601.96c-1.37,0-3.81.72-7.34,2.16-5.9,2.45-16.19,3.67-30.95,3.67-10.8,0-18.71-.36-23.61-1.08-4.89-.72-7.49-1.08-7.85-1.08-2.81,0-4.17,1.58-4.17,4.75,0,1.73,1.37,2.95,4.17,3.67,15.4,1.08,23.1,3.17,23.1,6.26,0,1.08-.5,2.3-1.58,3.67-2.45,3.17-4.53,7.7-6.33,13.6l-54.56,121.42c-8.71,19.58-13.1,33.68-13.1,42.39,0,9.79,3.96,17.85,11.8,24.11,7.92,6.26,17.92,9.43,30.16,9.43,18.57,0,35.2-6.26,49.88-18.64,9.79-8.28,14.68-14.54,14.68-18.64,0-2.09-1.08-3.17-3.17-3.17-1.73,0-4.18,2.09-7.34,6.19-4.53,6.55-11.08,12.16-19.65,16.77-8.56,4.68-16.19,6.98-22.82,6.98-9.79,0-14.68-4.75-14.68-14.11,0-4.53,3.96-16.05,12.02-34.55l60.31-137.69c5.61-12.88,9.64-21.45,12.09-25.62,1.73-3.17,2.66-5.25,2.66-6.26,0-2.81-1.3-4.25-3.74-4.25ZM1013.61,485.51c-16.05,0-24.11,7.2-24.11,21.52,0,6.69,2.23,12.16,6.84,16.56,4.54,4.39,10.29,6.55,17.27,6.55,13.67,0,20.44-7.34,20.44-22.02s-6.77-22.6-20.44-22.6Z"/>
    <path class="cls-1" d="M1177.36,604.63c-.36,0-1.8.36-4.25,1.01-2.45.72-4.53,1.08-6.26,1.08h-32.53l11.52-24.83,5.83-12.45c0-1.37-.93-2.08-2.66-2.08-1.01,0-2.3.36-3.67,1.01-7.34,3.17-12.96,4.82-16.77,4.82-2.09,0-4.97-.29-8.64-.79-3.67-.58-6.41-.79-8.13-.79s-4.25,3.81-7.34,11.51l-8.92,22.53c-4.61.36-9.28.58-14.18.58-3.89,0-6.62.14-8.42.5h-4.68c-4.89,0-7.34,2.16-7.34,6.48,0,2.3,2.95,3.53,8.92,3.53h21.45l-68.66,147.04c-8.06,17.06-12.09,28.79-12.09,35.05,0,9.79,3.96,17.78,11.8,24.04,7.85,6.33,18.07,9.43,30.66,9.43,18.57,0,34.48-5.76,47.79-17.27,11.51-10.15,17.27-17.49,17.27-22.02,0-2.45-1.37-3.67-4.18-3.67-1.44,0-3.53,1.66-6.33,5.11-12.24,16.48-26.2,24.76-41.96,24.76-10.8,0-16.27-3.67-16.27-11.01,0-4.54,3.89-15.4,11.59-32.54l70.82-158.92h29.37c14.68-.36,22.02-3.03,22.02-7.92,0-2.81-1.94-4.18-5.76-4.18Z"/>
    <path class="cls-1" d="M1318.08,603.04c-29.37,0-62.76,16.05-100.19,48.15-42.68,36.63-63.99,74.49-63.99,113.57,0,20.23,7.34,37,22.02,50.24,14.68,13.32,33.4,19.94,56.14,19.94,20.23,0,39.8-6.77,58.73-20.3,16.41-11.73,24.62-21.59,24.62-29.58,0-1.73-.86-2.59-2.59-2.59-1.44,0-4.39,2.38-8.92,7.27-20.3,22.09-41.1,33.11-62.4,33.11-27.64,0-41.46-15.48-41.46-46.5,0-22.96,6.48-47.86,19.43-74.71,13.6,1.44,25.98,2.09,37.21,2.09,31.09,0,56.86-6.12,77.16-18.5,20.23-12.31,30.37-27.93,30.37-46.71,0-23.68-15.4-35.48-46.14-35.48ZM1294.98,677.54c-18.5,11.88-37.57,17.85-57.15,17.85-5.25,0-10.01-.21-14.18-.5,16.41-30.45,34.4-53.33,54.05-68.73,10.8-8.42,21.81-12.6,33.04-12.6s16.27,5.4,16.27,16.26c0,18.5-10.72,34.41-32.03,47.72Z"/>
  </g>
</svg>